<svg width="512" height="512" viewBox="0 0 512 512" fill="none" xmlns="http://www.w3.org/2000/svg">
<rect width="512" height="512" rx="64" fill="#3b82f6"/>
<path d="M256 128C332.1 128 394 189.9 394 256S332.1 384 256 384 118 322.1 118 256 179.9 128 256 128ZM256 320C298.1 320 332 286.1 332 244S298.1 168 256 168 180 201.9 180 244 213.9 320 256 320Z" fill="white"/>
<circle cx="256" cy="244" r="24" fill="#3b82f6"/>
<rect x="232" y="352" width="48" height="32" rx="8" fill="white"/>
<path d="M200 120L312 120C320.8 120 328 127.2 328 136C328 144.8 320.8 152 312 152L200 152C191.2 152 184 144.8 184 136C184 127.2 191.2 120 200 120Z" fill="white" fill-opacity="0.8"/>
<path d="M220 88L292 88C300.8 88 308 95.2 308 104C308 112.8 300.8 120 292 120L220 120C211.2 120 204 112.8 204 104C204 95.2 211.2 88 220 88Z" fill="white" fill-opacity="0.6"/>
<path d="M240 56L272 56C280.8 56 288 63.2 288 72C288 80.8 280.8 88 272 88L240 88C231.2 88 224 80.8 224 72C224 63.2 231.2 56 240 56Z" fill="white" fill-opacity="0.4"/>
</svg>
